<svg width="48" height="48" viewBox="0 0 48 48" fill="none" xmlns="http://www.w3.org/2000/svg">
<path d="M20.9 31C21.7333 31.8333 22.7833 32.2253 24.05 32.176C25.3167 32.1267 26.2333 31.668 26.8 30.8L38 14L21.2 25.2C20.3333 25.8 19.8587 26.708 19.776 27.924C19.6933 29.14 20.068 30.1653 20.9 31ZM10.2 40C9.46667 40 8.792 39.8413 8.176 39.524C7.56 39.2067 7.068 38.732 6.7 38.1C5.83333 36.5333 5.16667 34.908 4.7 33.224C4.23333 31.54 4 29.7987 4 28C4 25.2333 4.52533 22.6333 5.576 20.2C6.62667 17.7667 8.05133 15.65 9.85 13.85C11.65 12.05 13.7667 10.6253 16.2 9.576C18.6333 8.52667 21.2333 8.00133 24 8C26.7333 8 29.3 8.51667 31.7 9.55C34.1 10.5833 36.2 11.992 38 13.776C39.8 15.5587 41.2333 17.642 42.3 20.026C43.3667 22.41 43.9167 24.968 43.95 27.7C43.9833 29.5333 43.7747 31.3253 43.324 33.076C42.8733 34.8267 42.182 36.5013 41.25 38.1C40.8833 38.7333 40.3913 39.2087 39.774 39.526C39.1567 39.8433 38.482 40.0013 37.75 40H10.2Z" fill="black"/>
</svg>
